# xmcd
#
# Track frame offsets:
#	150
#	2176
#	5292
#	9055
#	12239
#	15065
#	19022
#	23167
#	26179
#	29718
#	34621
#	37974
#	40933
#	44943
#	48917
#	51581
#	55037
#	58197
#	61510
#	64467
#	68736
#	72590
#	75990
#	79158
#	82542
#	87017
#	90406
#	95130
#	100207
#	103159
#	106801
#	110095
#	115367
#	118506
#	122938
#	128848
#	133620
#	139289
#	144259
#	149240
#	155124
#	160106
#	164281
#	169853
#	173267
#	176252
#	180134
#	184423
#	187849
#	191691
#	194907
#	198666
#	202083
#	205791
#	209401
#	213578
#	218325
#	223094
#	228341
#	232112
#
# Disc length: 3156 seconds
#
# Revision: 1
# Processed by: cddbd v1.5.1PL0 Copyright (c) Steve Scherf et al.
# Submitted via: CDex 1.50Beta5
#
DISCID=510c523c
DTITLE=松崎　博 - 英文法を赤ちゃんのように耳と口でおぼえる本
DYEAR=2002
DGENRE=Books
TTITLE0=スチュワーデスは名詞で話します（名詞・可算名詞・不可算名詞）
TTITLE1=冠詞はNativeも苦手（不定冠詞A,An 定冠詞The）
TTITLE2=Be動詞はイコール(=)ということ（Be動詞 Is Am Are ）
TTITLE3=主に動作を表す一般動詞（Be動詞以外の動詞）
TTITLE4=会話では多い、過去についての語り（過去形）
TTITLE5=押さえておきたい最重要動詞Get！
TTITLE6=Getと双璧の最重要動詞Give！
TTITLE7=Run Run Run♪はランランラン♪じゃない（不規則変化動詞）
TTITLE8=I'm Liking You.って変な英語だ（進行形できない動詞）
TTITLE9=進行形における過去、現在、未来
TTITLE10=３つの役を自在に演じ分ける「不定詞」
TTITLE11=覚えておきたい不定詞の使えるスタイル（Want+目的語+To ...）
TTITLE12=覚えておきたい不定詞の使えるスタイル（Ask+目的語+To...）
TTITLE13=覚えておきたい不定詞の使えるスタイル（How To Do）
TTITLE14=覚えておきたい不定詞の使えるスタイル（It's Good To ...）
TTITLE15=覚えておきたい不定詞の使えるスタイル（Too 〜 Too ...）
TTITLE16=覚えておきたい不定詞の使えるスタイル（決まり文句）
TTITLE17=動詞に手を加えて名詞にしちゃおう（動名詞）
TTITLE18=Stop Eating と Stop To Eatでは大違い
TTITLE19=「・・・させる」意味でのMake, Have, Letの違い（使役名詞 Make）
TTITLE20=「・・・させる」意味でのMake, Have, Letの違い（使役名詞 Have）
TTITLE21=「・・・させる」意味でのMake, Have, Letの違い（使役名詞 Let）
TTITLE22=日本語ほどはお目にかかれない受け身表現（受動態）
TTITLE23=受け身の否定と質問形をおさらいする（受動態の否定文・疑問文）
TTITLE24=覚えておきたい受け身の使えるスタイル（慣用句）
TTITLE25=覚えておきたい受け身の使えるスタイル（Want/Have+目的語+過去分詞）
TTITLE26=文字どおり、動詞を助ける言葉（助動詞 Can）
TTITLE27=文字どおり、動詞を助ける言葉（助動詞 May, Must）
TTITLE28=Will =Be Going Toとは言い切れない（助動詞 Will）
TTITLE29=Shall、リストラされつつある助動詞（助動詞 Shall）
TTITLE30=助動詞の否定文と疑問文（Can, Will, Must, Shall）
TTITLE31=英語表現をカラフルに彩る言葉（形容詞）
TTITLE32=性質や数量を表す形容詞の働き（Many, Much）
TTITLE33=形容詞としてのSomeとAny
TTITLE34=同時に条件をつけるのが副詞
TTITLE35=副詞節ってなぁに？
TTITLE36=どうしての比べたいときの比較表現
TTITLE37=比較急を使わない比較表現のいろいろ
TTITLE38=さまざまな最上級表現のスタイル
TTITLE39=誰もが苦手意識を持つ前置詞（時を表す前置詞）
TTITLE40=誰もが苦手意識を持つ前置詞（その他いろいろ）
TTITLE41=もし私がブラット・ピットだったら（仮定法過去）
TTITLE42=もし「あのとき」私がブラット・ピットだったら（仮定法過去完了）
TTITLE43=もし私がブラット・ピットと結婚したら（仮定法と直接法）
TTITLE44=英語独自のThereの世界（形式主語）
TTITLE45=英語独自のItの世界（形式主語）
TTITLE46=How Much の後ろには数えられない名詞がくる
TTITLE47=How Many の後ろには数えられる名詞がくる
TTITLE48=Howの後ろにお邪魔します（形容詞と副詞）
TTITLE49=感嘆文の作り方は簡単だ
TTITLE50=HowとWhatの書き換え方
TTITLE51=文とつなぐ接着剤 That（接続詞 That）
TTITLE52=理由と結果をハッキリさせる Such 〜 That 構文（接続詞 That）
TTITLE53=When構文のWhenは接続詞　疑問詞ではない
TTITLE54=「もし〜ならば」とミステリアスなIf構文（接続詞 If）
TTITLE55=「〜にもかかわらず」はThough構文で（接続詞 Though）
TTITLE56=Because構文（接続詞 Because）
TTITLE57=「人間専門」の関係代名詞 Who
TTITLE58=「物専門」の関係代名詞 Which
TTITLE59=人・物両用の関係代名詞 That
EXTD=
EXTT0=
EXTT1=
EXTT2=
EXTT3=
EXTT4=
EXTT5=
EXTT6=
EXTT7=
EXTT8=
EXTT9=
EXTT10=
EXTT11=
EXTT12=
EXTT13=
EXTT14=
EXTT15=
EXTT16=
EXTT17=
EXTT18=
EXTT19=
EXTT20=
EXTT21=
EXTT22=
EXTT23=
EXTT24=
EXTT25=
EXTT26=
EXTT27=
EXTT28=
EXTT29=
EXTT30=
EXTT31=
EXTT32=
EXTT33=
EXTT34=
EXTT35=
EXTT36=
EXTT37=
EXTT38=
EXTT39=
EXTT40=
EXTT41=
EXTT42=
EXTT43=
EXTT44=
EXTT45=
EXTT46=
EXTT47=
EXTT48=
EXTT49=
EXTT50=
EXTT51=
EXTT52=
EXTT53=
EXTT54=
EXTT55=
EXTT56=
EXTT57=
EXTT58=
EXTT59=
PLAYORDER=
